<svg width="213" height="61" viewBox="0 0 213 61" fill="none" xmlns="http://www.w3.org/2000/svg">
<g clip-path="url(#clip0_1_9)">
<path opacity="0.5" d="M64.067 0.410504L48.388 55.9541C48.3082 56.2062 47.9893 56.2819 47.8033 56.1054L37.3064 46.1464L45.1724 18.3115C45.2522 18.0594 45.013 17.8325 44.7472 17.9081L15.4089 25.3711L4.96507 15.4625C4.77905 15.286 4.85878 14.9834 5.12452 14.9078L63.6418 0.00710022C63.9075 -0.0433252 64.1467 0.183589 64.067 0.410504Z" fill="#00B37E"/>
<path opacity="0.5" d="M37.3058 46.1459L33.2665 60.5171C33.1868 60.7693 32.8679 60.8449 32.6818 60.6684L0.101381 29.7828C-0.0846407 29.6063 -0.00491732 29.3038 0.260829 29.2282L15.4084 25.3706L37.3058 46.1459Z" fill="#00B37E"/>
<path d="M45.1711 18.311L37.305 46.1459L15.4076 25.3706L44.7459 17.9076C45.0117 17.832 45.2508 18.0589 45.1711 18.311Z" fill="#00B37E"/>
</g>
<path d="M84.536 19.32V36H81.8V19.32H84.536ZM93.4561 22.56C94.4801 22.56 95.3841 22.768 96.1681 23.184C96.9681 23.584 97.5921 24.088 98.0401 24.696V22.776H100.8V36.216C100.8 37.432 100.544 38.512 100.032 39.456C99.5201 40.416 98.7761 41.168 97.8001 41.712C96.8401 42.256 95.6881 42.528 94.3441 42.528C92.5521 42.528 91.0641 42.104 89.8801 41.256C88.6961 40.424 88.0241 39.288 87.8641 37.848H90.5761C90.7841 38.536 91.2241 39.088 91.8961 39.504C92.5841 39.936 93.4001 40.152 94.3441 40.152C95.4481 40.152 96.3361 39.816 97.0081 39.144C97.6961 38.472 98.0401 37.496 98.0401 36.216V34.008C97.5761 34.632 96.9441 35.16 96.1441 35.592C95.3601 36.008 94.4641 36.216 93.4561 36.216C92.3041 36.216 91.2481 35.928 90.2881 35.352C89.3441 34.76 88.5921 33.944 88.0321 32.904C87.4881 31.848 87.2161 30.656 87.2161 29.328C87.2161 28 87.4881 26.824 88.0321 25.8C88.5921 24.776 89.3441 23.984 90.2881 23.424C91.2481 22.848 92.3041 22.56 93.4561 22.56ZM98.0401 29.376C98.0401 28.464 97.8481 27.672 97.4641 27C97.0961 26.328 96.6081 25.816 96.0001 25.464C95.3921 25.112 94.7361 24.936 94.0321 24.936C93.3281 24.936 92.6721 25.112 92.0641 25.464C91.4561 25.8 90.9601 26.304 90.5761 26.976C90.2081 27.632 90.0241 28.416 90.0241 29.328C90.0241 30.24 90.2081 31.04 90.5761 31.728C90.9601 32.416 91.4561 32.944 92.0641 33.312C92.6881 33.664 93.3441 33.84 94.0321 33.84C94.7361 33.84 95.3921 33.664 96.0001 33.312C96.6081 32.96 97.0961 32.448 97.4641 31.776C97.8481 31.088 98.0401 30.288 98.0401 29.376ZM111.066 22.56C112.106 22.56 113.034 22.776 113.85 23.208C114.682 23.64 115.33 24.28 115.794 25.128C116.258 25.976 116.49 27 116.49 28.2V36H113.778V28.608C113.778 27.424 113.482 26.52 112.89 25.896C112.298 25.256 111.49 24.936 110.466 24.936C109.442 24.936 108.626 25.256 108.018 25.896C107.426 26.52 107.13 27.424 107.13 28.608V36H104.394V22.776H107.13V24.288C107.578 23.744 108.146 23.32 108.834 23.016C109.538 22.712 110.282 22.56 111.066 22.56ZM121.372 21.024C120.876 21.024 120.46 20.856 120.124 20.52C119.788 20.184 119.62 19.768 119.62 19.272C119.62 18.776 119.788 18.36 120.124 18.024C120.46 17.688 120.876 17.52 121.372 17.52C121.852 17.52 122.26 17.688 122.596 18.024C122.932 18.36 123.1 18.776 123.1 19.272C123.1 19.768 122.932 20.184 122.596 20.52C122.26 20.856 121.852 21.024 121.372 21.024ZM122.716 22.776V36H119.98V22.776H122.716ZM129.5 25.008V32.328C129.5 32.824 129.612 33.184 129.836 33.408C130.076 33.616 130.476 33.72 131.036 33.72H132.716V36H130.556C129.324 36 128.38 35.712 127.724 35.136C127.068 34.56 126.74 33.624 126.74 32.328V25.008H125.18V22.776H126.74V19.488H129.5V22.776H132.716V25.008H129.5ZM147.358 29.064C147.358 29.56 147.326 30.008 147.262 30.408H137.158C137.238 31.464 137.63 32.312 138.334 32.952C139.038 33.592 139.902 33.912 140.926 33.912C142.398 33.912 143.438 33.296 144.046 32.064H146.997C146.598 33.28 145.87 34.28 144.814 35.064C143.774 35.832 142.478 36.216 140.926 36.216C139.662 36.216 138.526 35.936 137.518 35.376C136.526 34.8 135.742 34 135.166 32.976C134.606 31.936 134.326 30.736 134.326 29.376C134.326 28.016 134.598 26.824 135.142 25.8C135.702 24.76 136.478 23.96 137.47 23.4C138.478 22.84 139.63 22.56 140.926 22.56C142.174 22.56 143.286 22.832 144.262 23.376C145.238 23.92 145.998 24.688 146.542 25.68C147.086 26.656 147.358 27.784 147.358 29.064ZM144.502 28.2C144.486 27.192 144.126 26.384 143.422 25.776C142.718 25.168 141.846 24.864 140.806 24.864C139.862 24.864 139.054 25.168 138.382 25.776C137.71 26.368 137.31 27.176 137.182 28.2H144.502ZM166.1 19.32V21.552H159.02V26.472H164.54V28.704H159.02V36H156.284V19.32H166.1ZM180.756 29.064C180.756 29.56 180.724 30.008 180.66 30.408H170.556C170.636 31.464 171.028 32.312 171.732 32.952C172.436 33.592 173.3 33.912 174.324 33.912C175.796 33.912 176.836 33.296 177.444 32.064H180.396C179.996 33.28 179.268 34.28 178.212 35.064C177.172 35.832 175.876 36.216 174.324 36.216C173.06 36.216 171.924 35.936 170.916 35.376C169.924 34.8 169.14 34 168.564 32.976C168.004 31.936 167.724 30.736 167.724 29.376C167.724 28.016 167.996 26.824 168.54 25.8C169.1 24.76 169.876 23.96 170.868 23.4C171.876 22.84 173.028 22.56 174.324 22.56C175.572 22.56 176.684 22.832 177.66 23.376C178.636 23.92 179.396 24.688 179.94 25.68C180.484 26.656 180.756 27.784 180.756 29.064ZM177.9 28.2C177.884 27.192 177.524 26.384 176.82 25.776C176.116 25.168 175.244 24.864 174.204 24.864C173.26 24.864 172.452 25.168 171.78 25.776C171.108 26.368 170.708 27.176 170.58 28.2H177.9ZM195.568 29.064C195.568 29.56 195.536 30.008 195.472 30.408H185.368C185.448 31.464 185.84 32.312 186.544 32.952C187.248 33.592 188.112 33.912 189.136 33.912C190.608 33.912 191.648 33.296 192.256 32.064H195.208C194.808 33.28 194.08 34.28 193.024 35.064C191.984 35.832 190.688 36.216 189.136 36.216C187.872 36.216 186.736 35.936 185.728 35.376C184.736 34.8 183.952 34 183.376 32.976C182.816 31.936 182.536 30.736 182.536 29.376C182.536 28.016 182.808 26.824 183.352 25.8C183.912 24.76 184.688 23.96 185.68 23.4C186.688 22.84 187.84 22.56 189.136 22.56C190.384 22.56 191.496 22.832 192.472 23.376C193.448 23.92 194.208 24.688 194.752 25.68C195.296 26.656 195.568 27.784 195.568 29.064ZM192.712 28.2C192.696 27.192 192.336 26.384 191.632 25.776C190.928 25.168 190.056 24.864 189.016 24.864C188.072 24.864 187.264 25.168 186.592 25.776C185.92 26.368 185.52 27.176 185.392 28.2H192.712ZM197.349 29.328C197.349 28 197.621 26.824 198.165 25.8C198.725 24.776 199.477 23.984 200.421 23.424C201.381 22.848 202.445 22.56 203.613 22.56C204.477 22.56 205.325 22.752 206.157 23.136C207.005 23.504 207.677 24 208.173 24.624V18.24H210.933V36H208.173V34.008C207.725 34.648 207.101 35.176 206.301 35.592C205.517 36.008 204.613 36.216 203.589 36.216C202.437 36.216 201.381 35.928 200.421 35.352C199.477 34.76 198.725 33.944 198.165 32.904C197.621 31.848 197.349 30.656 197.349 29.328ZM208.173 29.376C208.173 28.464 207.981 27.672 207.597 27C207.229 26.328 206.741 25.816 206.133 25.464C205.525 25.112 204.869 24.936 204.165 24.936C203.461 24.936 202.805 25.112 202.197 25.464C201.589 25.8 201.093 26.304 200.709 26.976C200.341 27.632 200.157 28.416 200.157 29.328C200.157 30.24 200.341 31.04 200.709 31.728C201.093 32.416 201.589 32.944 202.197 33.312C202.821 33.664 203.477 33.84 204.165 33.84C204.869 33.84 205.525 33.664 206.133 33.312C206.741 32.96 207.229 32.448 207.597 31.776C207.981 31.088 208.173 30.288 208.173 29.376Z" fill="white"/>
<defs>
<clipPath id="clip0_1_9">
<rect width="65" height="61" fill="white"/>
</clipPath>
</defs>
</svg>
